<svg width="128" height="29" viewBox="0 0 128 29" fill="none" xmlns="http://www.w3.org/2000/svg">
<g id="full-dao-maker-logo 1" clip-path="url(#clip0_2_639)">
<g id="Layer_x0020_1">
<g id="_2203024366736">
<path id="Vector" d="M48.6144 22.785H44.1344V10.0029H48.6144C49.8944 10.0029 50.9798 10.2551 51.9117 10.812C52.7974 11.3163 53.5859 12.0728 54.0314 12.987C54.5229 13.9956 54.7226 15.1094 54.7226 16.4228C54.7226 17.7362 54.4768 18.9498 53.9341 19.8587C53.4886 20.7676 52.7053 21.5766 51.8144 22.081C50.9747 22.5328 49.8944 22.785 48.6144 22.785ZM46.7917 20.4629H48.4659C49.5974 20.4629 50.5344 20.1109 51.1744 19.4542C51.8144 18.7975 52.0602 17.7362 52.0602 16.3703C52.0602 15.0043 51.7171 13.9431 51.1744 13.2864C50.5344 12.6297 49.6486 12.2777 48.4659 12.2777H46.7917V20.4629ZM56.7398 22.785H53.9341L58.3168 10.0029H61.7626L66.1453 22.785H63.3344L62.4486 19.906H57.8714L56.7859 22.785H56.7398ZM58.3629 17.7835H61.5629L60.0371 12.9817H59.8886L58.3629 17.7835ZM76.9741 16.4176C76.9741 17.7835 76.7283 18.9918 76.1856 19.9533C75.6941 20.962 74.9568 21.6712 74.0659 22.1755C73.1802 22.6799 72.1971 22.9846 71.0605 22.9846C69.975 22.9846 68.9408 22.7324 68.055 22.1755C67.1693 21.6712 66.432 20.9147 65.9354 19.9533C65.4438 18.9446 65.1469 17.7783 65.1469 16.4176C65.1469 15.0569 65.3926 13.8433 65.9354 12.8819C66.4269 11.8732 67.1642 11.1639 68.055 10.6596C68.9408 10.1552 69.9238 9.85054 71.0605 9.85054C72.1459 9.85054 73.1802 10.1027 74.0659 10.6596C74.9517 11.1639 75.689 11.9205 76.1856 12.8819C76.6771 13.7908 76.9741 15.0569 76.9741 16.4176ZM74.2656 16.4176C74.2656 15.1042 73.9226 14.0429 73.3798 13.3337C72.791 12.6245 72.0486 12.2725 71.0656 12.2725C70.0826 12.2725 69.3402 12.6245 68.7514 13.3337C68.1626 14.0429 67.8656 15.1042 67.8656 16.4176C67.8656 17.731 68.2086 18.7922 68.7514 19.5014C69.3402 20.2107 70.0826 20.5627 71.0656 20.5627C72.0486 20.5627 72.791 20.2107 73.3798 19.5014C73.9686 18.7922 74.2656 17.731 74.2656 16.4176ZM80.5171 10.0029H83.8144L87.2602 18.6399H87.4086L90.8544 10.0029H94.1517V22.785H91.5917V14.4002H91.4432L88.1459 22.6379H86.4256L83.1283 14.3529H82.9798V22.7377H80.4198L80.471 10.0081H80.5171V10.0029ZM98.048 22.9373C97.1622 22.9373 96.3738 22.6851 95.785 22.2281C95.1962 21.771 94.8992 21.067 94.8992 20.0531C94.8992 19.3438 95.0938 18.7922 95.3907 18.3351C95.7338 17.9306 96.1792 17.6259 96.6707 17.4263C97.2595 17.2266 97.8022 17.0743 98.3962 17.0217C99.2307 16.9692 99.8246 16.8221 100.122 16.7696C100.465 16.6172 100.613 16.5174 100.613 16.1654V16.1129C100.613 15.7083 100.465 15.4036 100.219 15.204C99.9731 15.0043 99.6301 14.852 99.1846 14.852C98.7392 14.852 98.3501 15.0043 98.0531 15.204C97.8074 15.4036 97.6077 15.661 97.4643 16.013L95.0016 15.8134C95.1962 14.9571 95.6416 14.2478 96.3328 13.7908C97.024 13.2864 98.007 12.9817 99.0925 12.9817C99.7837 12.9817 100.424 13.1341 101.064 13.3337C101.704 13.5333 102.149 13.9379 102.543 14.3949C102.938 14.852 103.132 15.5087 103.132 16.2652V22.785H100.818V21.4716H100.767C100.521 21.9286 100.178 22.3279 99.7325 22.5853C99.241 22.9373 98.647 23.0424 97.9098 23.0424L98.048 22.9373ZM98.8365 21.1668C99.4253 21.1668 99.8707 20.9672 100.265 20.6625C100.659 20.3105 100.854 19.8534 100.854 19.4016V18.3877C100.705 18.4402 100.608 18.54 100.362 18.5873C100.116 18.6399 99.9168 18.7397 99.671 18.7397C99.4253 18.7922 99.2256 18.7922 99.031 18.892C98.5856 18.9446 98.1965 19.0917 97.9456 19.2966C97.6998 19.4962 97.5514 19.7536 97.5514 20.1529C97.5514 20.5522 97.6998 20.8096 97.9456 21.0092C98.1914 21.0618 98.5344 21.2089 98.9286 21.2089L98.8365 21.1668ZM104.402 22.8375V10.0554H107.013V16.9272H107.162L110.167 13.2917H113.172L109.629 17.4368L113.275 22.8953H110.172L107.612 19.0076L106.921 19.8639V22.8953L104.361 22.8428H104.402V22.8375Z" fill="white"/>
<path id="Vector_2" d="M117.202 22.9899C116.219 22.9899 115.379 22.7902 114.693 22.3857C114.002 21.9812 113.464 21.377 113.07 20.6678C112.676 19.9585 112.481 19.0024 112.481 18.0409C112.481 17.0322 112.676 16.1707 113.07 15.4667C113.464 14.7627 113.956 14.1533 114.693 13.7487C115.384 13.3442 116.173 13.1446 117.156 13.1446C117.99 13.1446 118.779 13.3442 119.419 13.6489C120.059 14.0009 120.648 14.5578 121.042 15.3143C121.436 16.0235 121.631 16.9797 121.631 17.9937V18.7029H115.231C115.231 19.4121 115.425 19.9638 115.82 20.4208C116.214 20.8254 116.705 21.025 117.345 21.025C117.791 21.025 118.18 20.8726 118.477 20.7728C118.82 20.5732 119.066 20.3158 119.168 19.9165L121.631 20.1161C121.436 21.025 120.991 21.6817 120.202 22.2911C119.368 22.6957 118.38 22.9478 117.248 22.9478L117.202 22.9899ZM115.082 16.9745H119.071C119.071 16.3703 118.876 15.9132 118.482 15.6085C118.088 15.204 117.647 15.1042 117.053 15.1042C116.46 15.1042 115.968 15.3038 115.625 15.7083C115.282 16.0603 115.133 16.5174 115.036 17.0217L115.082 16.9745ZM122.225 22.785V13.1866H124.785V14.852H124.933C125.128 14.2478 125.379 13.7908 125.768 13.5386C126.162 13.1866 126.653 13.0815 127.196 13.0815C127.539 13.0815 127.785 13.1341 128.031 13.2339V15.6085C127.836 15.556 127.688 15.556 127.539 15.4562C127.345 15.4562 127.145 15.4562 126.95 15.4562C126.362 15.4562 125.865 15.6558 125.522 15.9605C125.128 16.365 124.933 16.8168 124.933 17.4263V22.8322H122.225V22.785Z" fill="white"/>
<path id="Vector_3" d="M0.0153656 28.9475L12.6208 5.00145L23.7005 0L11.1411 23.8987L0.0153656 28.9475Z" fill="url(#paint0_linear_2_639)"/>
<path id="Vector_4" d="M12.5235 23.4417L22.1235 5.25362L27.5866 10.7594L18.135 29L12.5235 23.4417Z" fill="url(#paint1_linear_2_639)"/>
<path id="Vector_5" d="M28.5747 11.3163L35.6659 13.9957L32.1178 20.6152L23.5008 20.9672L28.5747 11.3163Z" fill="url(#paint2_linear_2_639)"/>
</g>
</g>
</g>
<defs>
<linearGradient id="paint0_linear_2_639" x1="12.681" y1="13.7939" x2="48.7407" y2="-14.3006" gradientUnits="userSpaceOnUse">
<stop stop-color="#48D5FF"/>
<stop offset="1" stop-color="#1FA5FF"/>
</linearGradient>
<linearGradient id="paint1_linear_2_639" x1="15.8996" y1="20.3611" x2="54.4557" y2="-7.63722" gradientUnits="userSpaceOnUse">
<stop stop-color="#48D5FF"/>
<stop offset="1" stop-color="#1FA5FF"/>
</linearGradient>
<linearGradient id="paint2_linear_2_639" x1="19.0627" y1="24.5047" x2="56.3063" y2="-2.26564" gradientUnits="userSpaceOnUse">
<stop stop-color="#48D5FF"/>
<stop offset="1" stop-color="#1FA5FF"/>
</linearGradient>
<clipPath id="clip0_2_639">
<rect width="128" height="29" fill="white"/>
</clipPath>
</defs>
</svg>
